<svg width="73" height="14" viewBox="0 0 73 14" fill="none" xmlns="http://www.w3.org/2000/svg">
<path d="M1.016 8.376C1.136 8.112 1.28 7.772 1.448 7.356C1.616 6.94 1.792 6.492 1.976 6.012C2.16 5.524 2.348 5.028 2.54 4.524C2.732 4.012 2.912 3.528 3.08 3.072C3.248 2.616 3.392 2.208 3.512 1.848C3.64 1.488 3.732 1.212 3.788 1.02C3.284 1.228 2.852 1.544 2.492 1.968C2.132 2.392 1.86 2.924 1.676 3.564C1.492 3.5 1.324 3.388 1.172 3.228C1.02 3.06 0.92 2.852 0.872 2.604C0.952 2.236 1.1 1.9 1.316 1.596C1.54 1.292 1.82 1.032 2.156 0.816C2.492 0.599999 2.88 0.435999 3.32 0.323999C3.76 0.204 4.232 0.144 4.736 0.144C5.376 0.144 5.964 0.24 6.5 0.431999C7.036 0.615999 7.496 0.875999 7.88 1.212C8.264 1.548 8.564 1.952 8.78 2.424C8.996 2.896 9.104 3.42 9.104 3.996C9.104 4.78 8.96 5.528 8.672 6.24C8.384 6.952 7.992 7.58 7.496 8.124C7.008 8.668 6.44 9.1 5.792 9.42C5.144 9.748 4.464 9.912 3.752 9.912C3.096 9.912 2.532 9.78 2.06 9.516C1.596 9.26 1.248 8.88 1.016 8.376ZM5.252 0.744C4.852 0.744 4.472 0.8 4.112 0.912C4.464 1.04 4.756 1.176 4.988 1.32C5.22 1.456 5.38 1.564 5.468 1.644C5.404 1.732 5.308 1.888 5.18 2.112C5.06 2.336 4.916 2.608 4.748 2.928C4.588 3.248 4.416 3.6 4.232 3.984C4.048 4.36 3.868 4.748 3.692 5.148C3.236 6.164 2.904 6.964 2.696 7.548C2.496 8.132 2.396 8.536 2.396 8.76C2.508 8.8 2.644 8.828 2.804 8.844C2.964 8.86 3.136 8.868 3.32 8.868C3.968 8.868 4.58 8.72 5.156 8.424C5.74 8.12 6.248 7.716 6.68 7.212C7.12 6.708 7.464 6.124 7.712 5.46C7.968 4.788 8.096 4.084 8.096 3.348C8.096 2.524 7.84 1.884 7.328 1.428C6.816 0.972 6.124 0.744 5.252 0.744ZM13.7998 4.032C13.7678 4.528 13.6798 4.956 13.5358 5.316C13.3918 5.668 13.1838 5.98 12.9118 6.252C12.6478 6.516 12.3238 6.756 11.9398 6.972C11.5558 7.188 11.1078 7.396 10.5958 7.596C10.5958 7.644 10.5918 7.696 10.5838 7.752C10.5838 7.8 10.5838 7.852 10.5838 7.908C10.5838 8.012 10.5918 8.12 10.6078 8.232C10.6238 8.344 10.6518 8.448 10.6918 8.544C10.7318 8.64 10.7878 8.72 10.8598 8.784C10.9318 8.84 11.0238 8.868 11.1358 8.868C11.3518 8.868 11.5638 8.82 11.7718 8.724C11.9798 8.628 12.1758 8.512 12.3598 8.376C12.5518 8.232 12.7278 8.08 12.8878 7.92C13.0558 7.752 13.2038 7.6 13.3318 7.464C13.4118 7.536 13.4798 7.604 13.5358 7.668C13.1758 8.148 12.7798 8.548 12.3478 8.868C11.9238 9.18 11.5198 9.38 11.1358 9.468C10.5838 9.404 10.1518 9.204 9.83984 8.868C9.53584 8.524 9.38384 8.112 9.38384 7.632C9.38384 7.304 9.42784 6.972 9.51584 6.636C9.61184 6.292 9.73984 5.964 9.89984 5.652C10.0678 5.332 10.2598 5.032 10.4758 4.752C10.6998 4.472 10.9358 4.228 11.1838 4.02C11.4398 3.812 11.6998 3.648 11.9638 3.528C12.2358 3.408 12.5038 3.348 12.7678 3.348C13.1358 3.396 13.4798 3.624 13.7998 4.032ZM12.9718 4.428C12.7558 4.46 12.5318 4.548 12.2998 4.692C12.0678 4.836 11.8478 5.028 11.6398 5.268C11.4398 5.508 11.2558 5.788 11.0878 6.108C10.9198 6.428 10.7878 6.772 10.6918 7.14C11.3318 6.82 11.8638 6.428 12.2878 5.964C12.7118 5.492 12.9398 4.98 12.9718 4.428ZM18.4954 4.224C18.4874 4.376 18.4594 4.536 18.4114 4.704C18.3714 4.864 18.3194 5.012 18.2554 5.148C18.1914 5.276 18.1234 5.384 18.0514 5.472C17.9794 5.56 17.9114 5.604 17.8474 5.604C17.7594 5.596 17.7074 5.536 17.6914 5.424C17.6914 5.4 17.6994 5.364 17.7154 5.316C17.7394 5.26 17.7634 5.2 17.7874 5.136C17.8114 5.072 17.8314 5.008 17.8474 4.944C17.8714 4.88 17.8834 4.824 17.8834 4.776C17.8834 4.664 17.8554 4.572 17.7994 4.5C17.7514 4.42 17.6834 4.38 17.5954 4.38C17.2754 4.38 17.0314 4.58 16.8634 4.98C16.6954 5.38 16.6114 5.968 16.6114 6.744C16.6114 6.824 16.6154 6.872 16.6234 6.888C16.7914 6.88 16.9394 6.876 17.0674 6.876C17.2034 6.868 17.3354 6.864 17.4634 6.864C17.4714 6.88 17.4754 6.912 17.4754 6.96C17.4754 7.032 17.4594 7.084 17.4274 7.116C17.2434 7.156 17.0954 7.192 16.9834 7.224C16.8794 7.248 16.7994 7.272 16.7434 7.296C16.6874 7.32 16.6514 7.348 16.6354 7.38C16.6274 7.404 16.6234 7.44 16.6234 7.488C16.6234 7.552 16.6234 7.616 16.6234 7.68C16.6314 7.744 16.6354 7.824 16.6354 7.92C16.6354 8.592 16.4514 9.132 16.0834 9.54C15.7234 9.948 15.2194 10.184 14.5714 10.248C14.4594 10.24 14.3434 10.208 14.2234 10.152C14.1034 10.096 13.9874 10.024 13.8754 9.936C13.7714 9.848 13.6794 9.748 13.5994 9.636C13.5194 9.532 13.4634 9.424 13.4314 9.312C13.4314 9.008 13.4954 8.72 13.6234 8.448C13.7514 8.168 13.9234 7.924 14.1394 7.716C14.3634 7.5 14.6234 7.328 14.9194 7.2C15.2234 7.064 15.5514 6.984 15.9034 6.96C15.9034 6.76 15.8834 6.564 15.8434 6.372C15.8034 6.18 15.7594 5.996 15.7114 5.82C15.6714 5.636 15.6314 5.46 15.5914 5.292C15.5514 5.116 15.5314 4.944 15.5314 4.776C15.5314 4.56 15.5754 4.348 15.6634 4.14C15.7514 3.924 15.8674 3.728 16.0114 3.552C16.1554 3.368 16.3234 3.212 16.5154 3.084C16.7074 2.956 16.9074 2.868 17.1154 2.82C17.2034 2.844 17.3194 2.916 17.4634 3.036C17.6154 3.148 17.7634 3.276 17.9074 3.42C18.0514 3.564 18.1794 3.712 18.2914 3.864C18.4034 4.008 18.4714 4.128 18.4954 4.224ZM14.5354 9.696C14.7274 9.616 14.9074 9.5 15.0754 9.348C15.2514 9.196 15.4034 9.024 15.5314 8.832C15.6594 8.64 15.7594 8.436 15.8314 8.22C15.9114 8.004 15.9514 7.792 15.9514 7.584C15.7914 7.608 15.6154 7.684 15.4234 7.812C15.2314 7.932 15.0514 8.08 14.8834 8.256C14.7154 8.424 14.5754 8.6 14.4634 8.784C14.3514 8.968 14.2954 9.128 14.2954 9.264C14.2954 9.44 14.3754 9.584 14.5354 9.696ZM18.5158 8.196C18.5158 8.124 18.5198 8.036 18.5278 7.932C18.5438 7.82 18.5678 7.676 18.5998 7.5C18.6318 7.316 18.6718 7.096 18.7198 6.84C18.7758 6.584 18.8438 6.276 18.9238 5.916C18.9398 5.836 18.9758 5.708 19.0318 5.532C19.0878 5.356 19.1598 5.172 19.2478 4.98C19.3438 4.78 19.4558 4.588 19.5838 4.404C19.7198 4.22 19.8798 4.084 20.0638 3.996C20.1998 4.028 20.3798 4.112 20.6038 4.248C20.8278 4.376 21.0198 4.556 21.1798 4.788C20.9958 4.996 20.8398 5.204 20.7118 5.412C20.5918 5.62 20.4798 5.836 20.3758 6.06C20.2798 6.284 20.1878 6.516 20.0998 6.756C20.0198 6.996 19.9278 7.248 19.8238 7.512C19.7358 7.736 19.6558 7.968 19.5838 8.208C19.5118 8.44 19.4718 8.644 19.4638 8.82C19.4638 8.964 19.4598 9.064 19.4518 9.12C19.4518 9.184 19.4318 9.216 19.3918 9.216C19.3598 9.216 19.2958 9.196 19.1998 9.156C19.1038 9.116 19.0038 9.056 18.8998 8.976C18.8038 8.888 18.7158 8.78 18.6358 8.652C18.5558 8.524 18.5158 8.372 18.5158 8.196ZM20.8078 2.988C20.8078 2.94 20.8198 2.868 20.8438 2.772C20.8038 2.732 20.7678 2.672 20.7358 2.592C20.7118 2.512 20.6998 2.44 20.6998 2.376C20.6998 2.304 20.7078 2.208 20.7238 2.088C20.7478 1.96 20.7758 1.824 20.8078 1.68C20.8398 1.536 20.8798 1.388 20.9278 1.236C20.9758 1.076 21.0238 0.931999 21.0718 0.804C21.1678 0.804 21.2838 0.832 21.4198 0.887999C21.5638 0.936 21.7078 1.004 21.8518 1.092C21.9958 1.172 22.1278 1.264 22.2478 1.368C22.3678 1.464 22.4598 1.556 22.5238 1.644C22.4358 1.732 22.3198 1.856 22.1758 2.016C22.0318 2.168 21.8918 2.332 21.7558 2.508C21.6198 2.676 21.4958 2.836 21.3838 2.988C21.2718 3.14 21.1998 3.248 21.1678 3.312C21.0718 3.296 20.9878 3.256 20.9158 3.192C20.8438 3.12 20.8078 3.052 20.8078 2.988ZM18.9158 12.576C18.9158 12.528 18.9318 12.484 18.9638 12.444C18.9958 12.404 19.0318 12.364 19.0718 12.324C19.1678 12.412 19.2518 12.48 19.3238 12.528C19.3878 12.576 19.4518 12.616 19.5158 12.648C19.5718 12.68 19.6318 12.7 19.6958 12.708C19.7598 12.716 19.8358 12.72 19.9238 12.72C20.3398 12.72 20.7358 12.608 21.1118 12.384C21.4878 12.168 21.8398 11.852 22.1678 11.436C22.5038 11.02 22.8078 10.512 23.0798 9.912C23.3518 9.312 23.5918 8.632 23.7998 7.872C23.7038 7.968 23.5838 8.076 23.4398 8.196C23.3038 8.308 23.1598 8.416 23.0078 8.52C22.8558 8.624 22.7038 8.72 22.5518 8.808C22.4078 8.896 22.2838 8.96 22.1798 9C22.0438 8.976 21.9158 8.92 21.7958 8.832C21.6838 8.736 21.5838 8.62 21.4958 8.484C21.4078 8.348 21.3398 8.196 21.2918 8.028C21.2438 7.852 21.2198 7.668 21.2198 7.476C21.2198 7.164 21.2758 6.844 21.3878 6.516C21.5078 6.188 21.6638 5.868 21.8558 5.556C22.0478 5.236 22.2718 4.936 22.5278 4.656C22.7918 4.376 23.0678 4.132 23.3558 3.924C23.6518 3.716 23.9478 3.552 24.2438 3.432C24.5478 3.304 24.8438 3.24 25.1318 3.24C25.4118 3.24 25.6198 3.3 25.7558 3.42C25.8998 3.532 26.0038 3.728 26.0678 4.008C25.9798 3.96 25.8678 3.936 25.7318 3.936C25.5398 3.936 25.3158 4.012 25.0598 4.164C24.8118 4.316 24.5558 4.516 24.2918 4.764C24.0358 5.004 23.7798 5.284 23.5238 5.604C23.2678 5.916 23.0398 6.236 22.8398 6.564C22.6478 6.892 22.4878 7.212 22.3598 7.524C22.2398 7.836 22.1798 8.116 22.1798 8.364C22.1798 8.42 22.1838 8.456 22.1918 8.472C22.1998 8.48 22.2118 8.484 22.2278 8.484C22.2998 8.484 22.3958 8.444 22.5158 8.364C22.6438 8.284 22.7838 8.184 22.9358 8.064C23.0958 7.936 23.2598 7.792 23.4278 7.632C23.5958 7.464 23.7558 7.296 23.9078 7.128C24.2518 6.744 24.5638 6.316 24.8438 5.844C25.1318 5.364 25.3598 4.9 25.5278 4.452C25.7438 4.468 25.9358 4.504 26.1038 4.56C26.2718 4.616 26.3878 4.676 26.4518 4.74C26.1798 5.364 25.9598 5.888 25.7918 6.312C25.6318 6.736 25.4918 7.112 25.3718 7.44C25.1558 8.016 24.9518 8.54 24.7598 9.012C24.5758 9.492 24.3838 9.932 24.1838 10.332C23.9918 10.74 23.7798 11.116 23.5478 11.46C23.3238 11.812 23.0678 12.148 22.7798 12.468C22.6438 12.62 22.4878 12.752 22.3118 12.864C22.1438 12.984 21.9678 13.084 21.7838 13.164C21.6078 13.244 21.4318 13.304 21.2558 13.344C21.0878 13.384 20.9318 13.404 20.7878 13.404C20.5958 13.404 20.3998 13.38 20.1998 13.332C19.9998 13.292 19.8158 13.232 19.6478 13.152C19.4718 13.08 19.3198 12.992 19.1918 12.888C19.0638 12.792 18.9718 12.688 18.9158 12.576ZM28.6861 3.18C28.8941 3.244 29.0901 3.388 29.2741 3.612C29.4581 3.828 29.5941 4.068 29.6821 4.332C29.5941 4.548 29.4581 4.808 29.2741 5.112C29.0901 5.416 28.9061 5.728 28.7221 6.048C28.5381 6.36 28.3701 6.66 28.2181 6.948C28.0741 7.228 27.9901 7.46 27.9661 7.644C28.0941 7.508 28.2341 7.352 28.3861 7.176C28.5461 6.992 28.6981 6.812 28.8421 6.636C28.9941 6.452 29.1341 6.288 29.2621 6.144C29.3901 5.992 29.4901 5.88 29.5621 5.808C29.7141 5.648 29.8941 5.464 30.1021 5.256C30.3101 5.04 30.5261 4.84 30.7501 4.656C30.9821 4.464 31.2141 4.304 31.4461 4.176C31.6781 4.04 31.8901 3.972 32.0821 3.972C32.2901 3.972 32.4621 4.044 32.5981 4.188C32.7421 4.324 32.8541 4.468 32.9341 4.62C32.9341 4.636 32.9021 4.66 32.8381 4.692C32.7821 4.716 32.6981 4.792 32.5861 4.92C32.4741 5.064 32.3461 5.264 32.2021 5.52C32.0661 5.768 31.9301 6.04 31.7941 6.336C31.6661 6.624 31.5581 6.92 31.4701 7.224C31.3821 7.528 31.3381 7.804 31.3381 8.052C31.3381 8.252 31.3621 8.38 31.4101 8.436C31.4661 8.492 31.5421 8.52 31.6381 8.52C31.7261 8.52 31.8181 8.5 31.9141 8.46C32.0101 8.42 32.0861 8.4 32.1421 8.4C32.1741 8.416 32.1981 8.452 32.2141 8.508C32.2381 8.556 32.2501 8.6 32.2501 8.64C32.1861 8.696 32.1101 8.752 32.0221 8.808C31.9341 8.864 31.8421 8.916 31.7461 8.964C31.6501 9.012 31.5541 9.052 31.4581 9.084C31.3701 9.116 31.2901 9.132 31.2181 9.132C30.9861 9.132 30.7941 9.096 30.6421 9.024C30.4981 8.96 30.3821 8.872 30.2941 8.76C30.2141 8.648 30.1581 8.516 30.1261 8.364C30.0941 8.204 30.0781 8.036 30.0781 7.86C30.0781 7.764 30.0861 7.656 30.1021 7.536C30.1181 7.416 30.1501 7.276 30.1981 7.116C30.2461 6.948 30.3141 6.752 30.4021 6.528C30.4901 6.296 30.6021 6.02 30.7381 5.7C30.7221 5.7 30.6141 5.756 30.4141 5.868C30.2141 5.98 29.9981 6.152 29.7661 6.384C29.3901 6.744 29.0501 7.1 28.7461 7.452C28.4501 7.804 28.1461 8.196 27.8341 8.628C27.6581 8.876 27.5021 9.084 27.3661 9.252C27.2381 9.428 27.1261 9.544 27.0301 9.6C26.8621 9.504 26.7381 9.368 26.6581 9.192C26.5781 9.024 26.5181 8.848 26.4781 8.664C26.4781 8.512 26.4981 8.32 26.5381 8.088C26.5861 7.856 26.6461 7.6 26.7181 7.32C26.7981 7.032 26.8941 6.732 27.0061 6.42C27.1181 6.108 27.2421 5.796 27.3781 5.484C27.6821 4.78 27.9581 4.228 28.2061 3.828C28.4621 3.428 28.6221 3.212 28.6861 3.18ZM43.954 0.912C43.978 1.048 43.994 1.144 44.002 1.2C44.018 1.248 44.026 1.316 44.026 1.404C44.026 1.668 43.966 1.916 43.846 2.148C43.734 2.372 43.578 2.532 43.378 2.628C43.218 2.412 43.022 2.228 42.79 2.076C42.558 1.916 42.302 1.788 42.022 1.692C41.75 1.588 41.466 1.512 41.17 1.464C40.874 1.416 40.586 1.392 40.306 1.392C40.026 1.392 39.762 1.416 39.514 1.464C39.274 1.504 39.058 1.564 38.866 1.644C38.682 1.716 38.534 1.808 38.422 1.92C38.318 2.032 38.266 2.16 38.266 2.304C38.29 2.48 38.398 2.66 38.59 2.844C38.782 3.02 39.018 3.196 39.298 3.372C39.578 3.54 39.886 3.708 40.222 3.876C40.566 4.044 40.902 4.204 41.23 4.356C41.638 4.548 41.99 4.728 42.286 4.896C42.582 5.056 42.826 5.236 43.018 5.436C43.21 5.628 43.354 5.848 43.45 6.096C43.546 6.344 43.594 6.644 43.594 6.996C43.594 7.404 43.526 7.788 43.39 8.148C43.254 8.5 43.054 8.808 42.79 9.072C42.534 9.336 42.222 9.54 41.854 9.684C41.486 9.836 41.074 9.912 40.618 9.912C40.17 9.912 39.686 9.844 39.166 9.708C38.646 9.572 38.158 9.384 37.702 9.144C37.254 8.912 36.878 8.644 36.574 8.34C36.278 8.028 36.13 7.7 36.13 7.356C36.13 7.196 36.174 6.992 36.262 6.744C36.358 6.496 36.526 6.236 36.766 5.964C36.79 6.204 36.918 6.488 37.15 6.816C37.39 7.144 37.746 7.448 38.218 7.728C38.658 7.984 39.11 8.172 39.574 8.292C40.046 8.404 40.486 8.46 40.894 8.46C41.342 8.46 41.706 8.404 41.986 8.292C42.266 8.18 42.486 8.048 42.646 7.896C42.806 7.736 42.918 7.576 42.982 7.416C43.046 7.256 43.082 7.128 43.09 7.032C43.082 6.872 43.006 6.72 42.862 6.576C42.726 6.424 42.538 6.28 42.298 6.144C42.066 6 41.794 5.856 41.482 5.712C41.17 5.568 40.846 5.424 40.51 5.28C40.006 5.056 39.57 4.848 39.202 4.656C38.842 4.456 38.542 4.256 38.302 4.056C38.07 3.848 37.898 3.632 37.786 3.408C37.682 3.184 37.63 2.928 37.63 2.64C37.63 2.192 37.766 1.768 38.038 1.368C38.31 0.967999 38.702 0.664 39.214 0.456C39.47 0.344 39.742 0.264 40.03 0.215999C40.326 0.168 40.614 0.144 40.894 0.144C41.422 0.144 41.938 0.216 42.442 0.36C42.946 0.504 43.45 0.688 43.954 0.912ZM49.0198 7.14C48.8358 7.724 48.6518 8.256 48.4678 8.736C48.2838 9.216 48.0878 9.656 47.8798 10.056C47.6718 10.464 47.4478 10.836 47.2078 11.172C46.9678 11.516 46.7038 11.84 46.4158 12.144C46.0478 12.528 45.6678 12.82 45.2758 13.02C44.8838 13.228 44.4918 13.332 44.0998 13.332C43.8998 13.332 43.6998 13.308 43.4998 13.26C43.3077 13.22 43.1277 13.16 42.9597 13.08C42.7837 13.008 42.6317 12.92 42.5037 12.816C42.3677 12.72 42.2717 12.616 42.2157 12.504C42.2157 12.408 42.2717 12.324 42.3837 12.252C42.4797 12.34 42.5597 12.408 42.6237 12.456C42.6877 12.504 42.7517 12.544 42.8157 12.576C42.8717 12.608 42.9357 12.628 43.0077 12.636C43.0717 12.644 43.1477 12.648 43.2357 12.648C43.6918 12.648 44.1358 12.512 44.5678 12.24C45.0078 11.976 45.4198 11.596 45.8038 11.1C46.1958 10.612 46.5518 10.016 46.8717 9.312C47.1918 8.616 47.4638 7.836 47.6878 6.972C47.5838 7.132 47.4558 7.328 47.3038 7.56C47.1518 7.792 46.9838 8.024 46.7998 8.256C46.6158 8.48 46.4238 8.684 46.2238 8.868C46.0318 9.052 45.8438 9.176 45.6598 9.24C45.5318 9.232 45.3958 9.204 45.2518 9.156C45.1158 9.116 44.9838 9.056 44.8558 8.976C44.7358 8.896 44.6278 8.8 44.5318 8.688C44.4358 8.576 44.3718 8.448 44.3398 8.304C44.3398 8.072 44.3478 7.888 44.3638 7.752C44.3798 7.608 44.4078 7.452 44.4478 7.284C44.5198 6.98 44.6238 6.636 44.7598 6.252C44.9038 5.868 45.0678 5.492 45.2518 5.124C45.4438 4.748 45.6518 4.4 45.8758 4.08C46.1078 3.752 46.3478 3.496 46.5958 3.312C46.6598 3.312 46.7398 3.32 46.8358 3.336C46.9318 3.344 47.0318 3.364 47.1358 3.396C47.2398 3.428 47.3398 3.468 47.4358 3.516C47.5318 3.556 47.6158 3.612 47.6878 3.684C47.5998 3.764 47.4078 4.032 47.1118 4.488C46.8158 4.944 46.4878 5.6 46.1278 6.456C46.0878 6.544 46.0398 6.672 45.9838 6.84C45.9278 7.008 45.8718 7.184 45.8158 7.368C45.7678 7.552 45.7238 7.732 45.6838 7.908C45.6438 8.084 45.6238 8.224 45.6238 8.328C45.6238 8.392 45.6318 8.44 45.6478 8.472C45.6718 8.504 45.6918 8.528 45.7078 8.544C45.8518 8.52 46.0438 8.404 46.2838 8.196C46.5238 7.98 46.7958 7.648 47.0998 7.2C47.2918 6.912 47.4678 6.628 47.6278 6.348C47.7878 6.06 47.9438 5.772 48.0958 5.484C48.2558 5.196 48.4198 4.9 48.5878 4.596C48.7558 4.292 48.9358 3.98 49.1278 3.66C49.2318 3.66 49.3438 3.672 49.4638 3.696C49.5838 3.72 49.6998 3.752 49.8118 3.792C49.9238 3.824 50.0198 3.864 50.0998 3.912C50.1878 3.952 50.2518 3.996 50.2918 4.044C50.0438 4.572 49.8118 5.088 49.5958 5.592C49.3798 6.096 49.1878 6.612 49.0198 7.14ZM54.5188 4.224C54.5108 4.376 54.4828 4.536 54.4348 4.704C54.3948 4.864 54.3428 5.012 54.2788 5.148C54.2148 5.276 54.1468 5.384 54.0748 5.472C54.0028 5.56 53.9348 5.604 53.8708 5.604C53.7828 5.596 53.7308 5.536 53.7148 5.424C53.7148 5.4 53.7228 5.364 53.7388 5.316C53.7628 5.26 53.7868 5.2 53.8108 5.136C53.8348 5.072 53.8548 5.008 53.8708 4.944C53.8948 4.88 53.9068 4.824 53.9068 4.776C53.9068 4.664 53.8788 4.572 53.8228 4.5C53.7748 4.42 53.7068 4.38 53.6188 4.38C53.2988 4.38 53.0548 4.58 52.8868 4.98C52.7188 5.38 52.6348 5.968 52.6348 6.744C52.6348 6.824 52.6388 6.872 52.6468 6.888C52.8148 6.88 52.9628 6.876 53.0908 6.876C53.2268 6.868 53.3588 6.864 53.4868 6.864C53.4948 6.88 53.4988 6.912 53.4988 6.96C53.4988 7.032 53.4828 7.084 53.4508 7.116C53.2668 7.156 53.1188 7.192 53.0068 7.224C52.9028 7.248 52.8228 7.272 52.7668 7.296C52.7108 7.32 52.6748 7.348 52.6588 7.38C52.6508 7.404 52.6468 7.44 52.6468 7.488C52.6468 7.552 52.6468 7.616 52.6468 7.68C52.6548 7.744 52.6588 7.824 52.6588 7.92C52.6588 8.592 52.4748 9.132 52.1068 9.54C51.7468 9.948 51.2428 10.184 50.5948 10.248C50.4828 10.24 50.3668 10.208 50.2468 10.152C50.1268 10.096 50.0108 10.024 49.8988 9.936C49.7948 9.848 49.7028 9.748 49.6228 9.636C49.5428 9.532 49.4868 9.424 49.4548 9.312C49.4548 9.008 49.5188 8.72 49.6468 8.448C49.7748 8.168 49.9468 7.924 50.1628 7.716C50.3868 7.5 50.6468 7.328 50.9428 7.2C51.2468 7.064 51.5748 6.984 51.9268 6.96C51.9268 6.76 51.9068 6.564 51.8668 6.372C51.8268 6.18 51.7828 5.996 51.7348 5.82C51.6948 5.636 51.6548 5.46 51.6148 5.292C51.5748 5.116 51.5548 4.944 51.5548 4.776C51.5548 4.56 51.5988 4.348 51.6868 4.14C51.7748 3.924 51.8908 3.728 52.0348 3.552C52.1788 3.368 52.3468 3.212 52.5388 3.084C52.7308 2.956 52.9308 2.868 53.1388 2.82C53.2268 2.844 53.3428 2.916 53.4868 3.036C53.6388 3.148 53.7868 3.276 53.9308 3.42C54.0748 3.564 54.2028 3.712 54.3148 3.864C54.4268 4.008 54.4948 4.128 54.5188 4.224ZM50.5588 9.696C50.7508 9.616 50.9308 9.5 51.0988 9.348C51.2748 9.196 51.4268 9.024 51.5548 8.832C51.6828 8.64 51.7828 8.436 51.8548 8.22C51.9348 8.004 51.9748 7.792 51.9748 7.584C51.8148 7.608 51.6388 7.684 51.4468 7.812C51.2548 7.932 51.0748 8.08 50.9068 8.256C50.7388 8.424 50.5988 8.6 50.4868 8.784C50.3748 8.968 50.3188 9.128 50.3188 9.264C50.3188 9.44 50.3988 9.584 50.5588 9.696ZM55.2353 4.404C55.1953 4.356 55.1593 4.256 55.1273 4.104C55.0953 3.944 55.0793 3.808 55.0793 3.696C55.2873 3.712 55.4873 3.728 55.6793 3.744C55.8713 3.752 56.0473 3.76 56.2073 3.768C56.3273 3.528 56.4553 3.292 56.5913 3.06C56.7353 2.82 56.8713 2.604 56.9993 2.412C57.1353 2.212 57.2593 2.044 57.3713 1.908C57.4913 1.772 57.5833 1.684 57.6473 1.644C57.7273 1.644 57.8273 1.66 57.9473 1.692C58.0753 1.716 58.2033 1.752 58.3313 1.8C58.4593 1.84 58.5753 1.884 58.6793 1.932C58.7833 1.98 58.8553 2.028 58.8953 2.076C58.6553 2.38 58.4473 2.664 58.2713 2.928C58.1033 3.184 57.9193 3.48 57.7193 3.816C57.8793 3.816 58.0393 3.812 58.1993 3.804C58.3673 3.796 58.5353 3.784 58.7033 3.768C58.7433 3.808 58.7753 3.86 58.7993 3.924C58.8233 3.98 58.8353 4.04 58.8353 4.104C58.4433 4.248 57.9673 4.328 57.4073 4.344C57.2073 4.728 57.0273 5.112 56.8673 5.496C56.7153 5.872 56.5833 6.236 56.4713 6.588C56.3673 6.94 56.2833 7.272 56.2193 7.584C56.1633 7.896 56.1353 8.176 56.1353 8.424C56.1353 8.776 56.2673 8.972 56.5313 9.012C56.7713 8.98 56.9993 8.92 57.2153 8.832C57.4313 8.744 57.6233 8.632 57.7913 8.496C57.8393 8.568 57.8673 8.628 57.8753 8.676C57.8273 8.748 57.7433 8.832 57.6233 8.928C57.5113 9.024 57.3873 9.116 57.2513 9.204C57.1153 9.3 56.9833 9.38 56.8553 9.444C56.7273 9.508 56.6313 9.544 56.5673 9.552C56.3673 9.544 56.1673 9.5 55.9673 9.42C55.7673 9.34 55.5833 9.24 55.4153 9.12C55.2553 9 55.1233 8.868 55.0193 8.724C54.9153 8.572 54.8633 8.424 54.8633 8.28C54.8633 8.088 54.8873 7.848 54.9353 7.56C54.9913 7.264 55.0673 6.944 55.1633 6.6C55.2593 6.256 55.3713 5.896 55.4993 5.52C55.6273 5.144 55.7673 4.772 55.9193 4.404H55.2353ZM63.042 4.032C63.01 4.528 62.922 4.956 62.778 5.316C62.634 5.668 62.426 5.98 62.154 6.252C61.89 6.516 61.566 6.756 61.182 6.972C60.798 7.188 60.35 7.396 59.838 7.596C59.838 7.644 59.834 7.696 59.826 7.752C59.826 7.8 59.826 7.852 59.826 7.908C59.826 8.012 59.834 8.12 59.85 8.232C59.866 8.344 59.894 8.448 59.934 8.544C59.974 8.64 60.03 8.72 60.102 8.784C60.174 8.84 60.266 8.868 60.378 8.868C60.594 8.868 60.806 8.82 61.014 8.724C61.222 8.628 61.418 8.512 61.602 8.376C61.794 8.232 61.97 8.08 62.13 7.92C62.298 7.752 62.446 7.6 62.574 7.464C62.654 7.536 62.722 7.604 62.778 7.668C62.418 8.148 62.022 8.548 61.59 8.868C61.166 9.18 60.762 9.38 60.378 9.468C59.826 9.404 59.394 9.204 59.082 8.868C58.778 8.524 58.626 8.112 58.626 7.632C58.626 7.304 58.67 6.972 58.758 6.636C58.854 6.292 58.982 5.964 59.142 5.652C59.31 5.332 59.502 5.032 59.718 4.752C59.942 4.472 60.178 4.228 60.426 4.02C60.682 3.812 60.942 3.648 61.206 3.528C61.478 3.408 61.746 3.348 62.01 3.348C62.378 3.396 62.722 3.624 63.042 4.032ZM62.214 4.428C61.998 4.46 61.774 4.548 61.542 4.692C61.31 4.836 61.09 5.028 60.882 5.268C60.682 5.508 60.498 5.788 60.33 6.108C60.162 6.428 60.03 6.772 59.934 7.14C60.574 6.82 61.106 6.428 61.53 5.964C61.954 5.492 62.182 4.98 62.214 4.428ZM70.5336 5.316C70.4056 5.324 70.2496 5.408 70.0656 5.568C69.8816 5.72 69.6816 5.92 69.4656 6.168C69.2576 6.408 69.0376 6.676 68.8056 6.972C68.5816 7.268 68.3616 7.564 68.1456 7.86C67.9376 8.148 67.7416 8.42 67.5576 8.676C67.3736 8.932 67.2176 9.136 67.0896 9.288C66.9136 9.216 66.7616 9.112 66.6336 8.976C66.5056 8.832 66.4136 8.656 66.3576 8.448C66.3976 8.2 66.4536 7.944 66.5256 7.68C66.5976 7.408 66.6896 7.128 66.8016 6.84C66.9216 6.552 67.0656 6.252 67.2336 5.94C67.4096 5.62 67.6216 5.284 67.8696 4.932C67.7496 4.94 67.5856 5.028 67.3776 5.196C67.1696 5.356 66.9456 5.568 66.7056 5.832C66.4656 6.088 66.2176 6.38 65.9616 6.708C65.7056 7.028 65.4656 7.344 65.2416 7.656C64.9456 8.072 64.6976 8.436 64.4976 8.748C64.3056 9.06 64.1656 9.244 64.0776 9.3C63.8696 9.148 63.7256 8.984 63.6456 8.808C63.5656 8.632 63.5056 8.436 63.4656 8.22C63.4736 8.028 63.5016 7.788 63.5496 7.5C63.6056 7.212 63.6816 6.916 63.7776 6.612C63.9616 6.028 64.1976 5.448 64.4856 4.872C64.7816 4.296 65.0656 3.768 65.3376 3.288C65.5616 3.336 65.7616 3.412 65.9376 3.516C66.1216 3.62 66.3136 3.772 66.5136 3.972C66.4336 4.22 66.3096 4.484 66.1416 4.764C65.9736 5.036 65.7976 5.324 65.6136 5.628C65.4296 5.932 65.2616 6.244 65.1096 6.564C64.9576 6.884 64.8576 7.208 64.8096 7.536C65.0336 7.216 65.2976 6.848 65.6016 6.432C65.9136 6.016 66.2296 5.624 66.5496 5.256C66.8776 4.888 67.2016 4.576 67.5216 4.32C67.8416 4.064 68.1296 3.936 68.3856 3.936C68.4816 3.936 68.5856 3.952 68.6976 3.984C68.8096 4.016 68.9136 4.056 69.0096 4.104C69.1056 4.152 69.1856 4.2 69.2496 4.248C69.3136 4.288 69.3496 4.32 69.3576 4.344C69.3176 4.504 69.2216 4.724 69.0696 5.004C68.9256 5.276 68.7696 5.564 68.6016 5.868C68.4336 6.172 68.2776 6.468 68.1336 6.756C67.9896 7.036 67.9056 7.26 67.8816 7.428C68.2736 6.892 68.6416 6.408 68.9856 5.976C69.3296 5.536 69.6536 5.16 69.9576 4.848C70.2616 4.536 70.5416 4.296 70.7976 4.128C71.0616 3.96 71.3096 3.876 71.5416 3.876C71.7016 3.876 71.8496 3.92 71.9856 4.008C72.1296 4.088 72.2296 4.208 72.2856 4.368C72.2136 4.608 72.0936 4.896 71.9256 5.232C71.7656 5.568 71.6016 5.924 71.4336 6.3C71.2656 6.668 71.1136 7.032 70.9776 7.392C70.8496 7.752 70.7856 8.076 70.7856 8.364C70.7856 8.532 70.8096 8.644 70.8576 8.7C70.9056 8.748 70.9736 8.772 71.0616 8.772C71.1576 8.772 71.2456 8.756 71.3256 8.724C71.4136 8.684 71.4776 8.664 71.5176 8.664C71.5656 8.696 71.5936 8.736 71.6016 8.784C71.6096 8.832 71.6136 8.876 71.6136 8.916C71.4536 9.044 71.2896 9.148 71.1216 9.228C70.9536 9.316 70.7656 9.36 70.5576 9.36C70.3656 9.36 70.2056 9.328 70.0776 9.264C69.9576 9.2 69.8576 9.112 69.7776 9C69.6976 8.888 69.6416 8.76 69.6096 8.616C69.5776 8.472 69.5616 8.316 69.5616 8.148C69.5616 7.876 69.5976 7.608 69.6696 7.344C69.7416 7.072 69.8256 6.816 69.9216 6.576C70.0256 6.328 70.1336 6.1 70.2456 5.892C70.3576 5.676 70.4536 5.484 70.5336 5.316Z" fill="black"/>
</svg>
