<svg width="1229" height="596" viewBox="0 0 1229 596" fill="none" xmlns="http://www.w3.org/2000/svg">
<rect x="1202.21" y="420.44" width="26.6667" height="6.66667" rx="3.33333" transform="rotate(120 1202.21 420.44)" stroke="white" stroke-width="2"/>
<path d="M1209.24 425.546L1198.88 426.214L1192.21 437.761L1196.81 447.064C1197.16 447.768 1197.33 448.12 1197.66 448.267C1197.99 448.414 1198.37 448.313 1199.12 448.11L1215.75 443.654L1211.3 427.024C1211.09 426.266 1210.99 425.887 1210.7 425.678C1210.41 425.47 1210.02 425.495 1209.24 425.546Z" stroke="white" stroke-width="2"/>
<path d="M1200.76 439.618C1198.85 438.513 1198.19 436.067 1199.3 434.154C1200.4 432.241 1202.85 431.585 1204.76 432.69C1206.68 433.794 1207.33 436.241 1206.23 438.154C1205.12 440.067 1202.68 440.722 1200.76 439.618Z" stroke="white" stroke-width="2"/>
<path d="M1215.75 443.654L1205.65 437.82" stroke="white" stroke-width="2"/>
<path d="M0.5 1.00001C788.893 31.1744 -58.6163 205.259 544.93 280.995C1148.48 356.731 285.19 390.256 489.232 553.869C693.273 717.481 1074.59 325.956 1189.5 428" stroke="white" stroke-width="2"/>
</svg>
