<svg width="24" height="24" viewBox="0 0 24 24" fill="none" xmlns="http://www.w3.org/2000/svg">
<g id="icon / day" clip-path="url(#clip0_3206_55376)">
<g id="Union">
<path fill-rule="evenodd" clip-rule="evenodd" d="M16 13.4142V11C16.7111 11 17.3875 10.8516 18 10.584V12.5858L20 14.5858V20H15C15 20.2633 14.974 20.5269 14.9219 20.7867C14.8012 21.3883 14.5438 21.954 14.1695 22.4402C13.7952 22.9263 13.3141 23.3199 12.7634 23.5904C12.2126 23.8608 11.6071 24.001 10.9935 24C10.38 23.999 9.77489 23.8569 9.22505 23.5846C8.67522 23.3124 8.19538 22.9173 7.82266 22.4299C7.44994 21.9426 7.19433 21.376 7.0756 20.774C7.02516 20.5183 7 20.259 7 20H2V14.5858L4 12.5858V10C4 6.13401 7.13401 3 11 3C11.323 3 11.6408 3.02187 11.9522 3.06422C11.54 3.63149 11.2442 4.28876 11.0998 5.00098C11.0666 5.00033 11.0334 5 11 5C8.23858 5 6 7.23858 6 10V13.4142L4 15.4142V18H18V15.4142L16 13.4142ZM9 20C9 20.1295 9.01258 20.2591 9.0378 20.387C9.09717 20.688 9.22497 20.9713 9.41133 21.215C9.59769 21.4587 9.83761 21.6562 10.1125 21.7923C10.3874 21.9285 10.69 21.9995 10.9968 22C11.3035 22.0005 11.6063 21.9304 11.8817 21.7952C12.157 21.6599 12.3976 21.4632 12.5847 21.2201C12.7719 20.977 12.9006 20.6941 12.9609 20.3934C12.987 20.2634 13 20.1317 13 20H9Z" fill="#4F4B5C"/>
<path fill-rule="evenodd" clip-rule="evenodd" d="M13 6C13 4.34315 14.3431 3 16 3C17.6569 3 19 4.34315 19 6C19 7.65685 17.6569 9 16 9C14.3431 9 13 7.65685 13 6ZM16 5C15.4477 5 15 5.44772 15 6C15 6.55228 15.4477 7 16 7C16.5523 7 17 6.55228 17 6C17 5.44772 16.5523 5 16 5Z" fill="#4F4B5C"/>
</g>
</g>
<defs>
<clipPath id="clip0_3206_55376">
<rect width="24" height="24" fill="white"/>
</clipPath>
</defs>
</svg>
