<svg width="24" height="24" viewBox="0 0 24 24" fill="none" xmlns="http://www.w3.org/2000/svg">
<path d="M10 13C10.4295 13.5741 10.9774 14.0492 11.6066 14.3929C12.2357 14.7367 12.9315 14.9411 13.6467 14.9923C14.3618 15.0436 15.0796 14.9404 15.7513 14.6898C16.4231 14.4392 17.0331 14.0471 17.54 13.54L20.54 10.54C21.4508 9.59699 21.9548 8.33398 21.9434 7.023C21.932 5.71201 21.4061 4.45795 20.4791 3.53091C19.5521 2.60387 18.298 2.07803 16.987 2.06663C15.676 2.05524 14.413 2.55921 13.47 3.47L11.75 5.18" stroke="black" stroke-width="2" stroke-linecap="round" stroke-linejoin="round"/>
<path d="M14 11C13.5705 10.4259 13.0226 9.95081 12.3934 9.60706C11.7643 9.2633 11.0685 9.05888 10.3533 9.00766C9.63821 8.95645 8.92041 9.05963 8.24865 9.31021C7.5769 9.5608 6.96689 9.95293 6.46 10.46L3.46 13.46C2.54921 14.403 2.04524 15.666 2.05663 16.977C2.06802 18.288 2.59387 19.542 3.52091 20.4691C4.44795 21.3961 5.70201 21.922 7.01299 21.9334C8.32398 21.9448 9.58699 21.4408 10.53 20.53L12.24 18.82" stroke="black" stroke-width="2" stroke-linecap="round" stroke-linejoin="round"/>
</svg>
