<svg width="40" height="40" viewBox="0 0 40 40" fill="none" xmlns="http://www.w3.org/2000/svg">
<g clip-path="url(#clip0_16_322)">
<path d="M27.0001 12C27.0001 19.732 20.7321 26 13.0001 26C5.26813 26 -0.999911 19.732 -0.999943 12C-0.999974 4.26801 5.26801 -2 13 -2C20.732 -2 27 4.26801 27.0001 12Z" fill="url(#paint0_radial_16_322)"/>
<g filter="url(#filter0_d_16_322)">
<path d="M23.2353 14.4706L24.2941 19.7647L20.7647 23.2941L15.4706 22.2353L13 12L23.2353 14.4706Z" stroke="white" stroke-linecap="round" stroke-linejoin="round"/>
<circle cx="17.7699" cy="16.9412" r="1.61765" transform="rotate(-45 17.7699 16.9412)" stroke="white"/>
<path d="M13 12L16.4939 15.4939" stroke="white"/>
<path d="M30.765 33.4158L20.8005 23.4512L24.4857 19.766L34.4503 29.7305C35.4679 30.7481 35.4679 32.3981 34.4503 33.4158C33.4326 34.4334 31.7826 34.4334 30.765 33.4158Z" stroke="white"/>
<rect x="33.4706" y="28.7084" width="5.4102" height="0.669156" transform="rotate(135 33.4706 28.7084)" fill="white"/>
</g>
</g>
<defs>
<filter id="filter0_d_16_322" x="10.5" y="11.5" width="27.2135" height="27.179" filterUnits="userSpaceOnUse" color-interpolation-filters="sRGB">
<feFlood flood-opacity="0" result="BackgroundImageFix"/>
<feColorMatrix in="SourceAlpha" type="matrix" values="0 0 0 0 0 0 0 0 0 0 0 0 0 0 0 0 0 0 127 0" result="hardAlpha"/>
<feOffset dy="2"/>
<feGaussianBlur stdDeviation="1"/>
<feComposite in2="hardAlpha" operator="out"/>
<feColorMatrix type="matrix" values="0 0 0 0 0.0588235 0 0 0 0 0.0431373 0 0 0 0 0.141176 0 0 0 0.7 0"/>
<feBlend mode="normal" in2="BackgroundImageFix" result="effect1_dropShadow_16_322"/>
<feBlend mode="normal" in="SourceGraphic" in2="effect1_dropShadow_16_322" result="shape"/>
</filter>
<radialGradient id="paint0_radial_16_322" cx="0" cy="0" r="1" gradientUnits="userSpaceOnUse" gradientTransform="translate(13.0001 12) rotate(-140.711) scale(14.2127 14.2126)">
<stop offset="0.213542" stop-color="#A797FF"/>
<stop offset="0.578125" stop-color="#A797FF" stop-opacity="0.48062"/>
<stop offset="1" stop-color="white" stop-opacity="0"/>
</radialGradient>
<clipPath id="clip0_16_322">
<rect width="40" height="40" fill="white" transform="translate(40) rotate(90)"/>
</clipPath>
</defs>
</svg>
