<svg width="40" height="40" viewBox="0 0 40 40" fill="none" xmlns="http://www.w3.org/2000/svg">
<g clip-path="url(#clip0_14_314)">
<g filter="url(#filter0_d_14_314)">
<path d="M20 28H29" stroke="white" stroke-linecap="round" stroke-linejoin="round"/>
<path d="M26 10.8787C25.4374 10.8787 24.8978 11.1022 24.5 11.5L12 24L11 28L15 27L27.5 14.5C27.697 14.303 27.8532 14.0692 27.9598 13.8118C28.0665 13.5544 28.1213 13.2786 28.1213 13C28.1213 12.7214 28.0665 12.4456 27.9598 12.1882C27.8532 11.9308 27.697 11.697 27.5 11.5C27.303 11.303 27.0692 11.1468 26.8118 11.0402C26.5544 10.9335 26.2786 10.8787 26 10.8787Z" stroke="white" stroke-linecap="round" stroke-linejoin="round"/>
</g>
</g>
<defs>
<filter id="filter0_d_14_314" x="8.49998" y="10.3787" width="23" height="22.1213" filterUnits="userSpaceOnUse" color-interpolation-filters="sRGB">
<feFlood flood-opacity="0" result="BackgroundImageFix"/>
<feColorMatrix in="SourceAlpha" type="matrix" values="0 0 0 0 0 0 0 0 0 0 0 0 0 0 0 0 0 0 127 0" result="hardAlpha"/>
<feOffset dy="2"/>
<feGaussianBlur stdDeviation="1"/>
<feComposite in2="hardAlpha" operator="out"/>
<feColorMatrix type="matrix" values="0 0 0 0 0.0588235 0 0 0 0 0.0431373 0 0 0 0 0.141176 0 0 0 0.7 0"/>
<feBlend mode="normal" in2="BackgroundImageFix" result="effect1_dropShadow_14_314"/>
<feBlend mode="normal" in="SourceGraphic" in2="effect1_dropShadow_14_314" result="shape"/>
</filter>
<clipPath id="clip0_14_314">
<rect width="24" height="24" fill="white" transform="translate(8 8)"/>
</clipPath>
</defs>
</svg>
